<svg width="20" height="20" viewBox="0 0 20 20" fill="none" xmlns="http://www.w3.org/2000/svg">
<g clip-path="url(#clip0_5622_21430)">
<path fill-rule="evenodd" clip-rule="evenodd" d="M8.19643 0.182459C8.5771 0.13859 8.95356 0.0548721 9.33423 0.019043C9.78672 0.019043 10.2394 0.019043 10.688 0.019043C11.0846 0.058892 11.4733 0.14261 11.8699 0.190499C12.4307 0.32997 12.9996 0.445672 13.5364 0.673056C13.941 0.784563 14.3017 1.00391 14.6782 1.1834C15.1548 1.46654 15.6396 1.74164 16.076 2.08455C16.5609 2.42763 16.9697 2.85426 17.3862 3.27285C18.1473 4.11825 18.7562 5.09123 19.2288 6.12398C19.3571 6.52282 19.5373 6.90977 19.6296 7.3205C19.6937 7.59961 19.7778 7.87856 19.8339 8.15768C19.878 8.53642 19.962 8.91149 19.9982 9.29023C19.9982 9.80477 20.0022 10.323 19.9942 10.8375C19.9061 11.4316 19.8378 12.0258 19.6656 12.604C19.5735 13.0705 19.3732 13.5092 19.2248 13.9597C18.7522 14.9885 18.1433 15.9655 17.3821 16.8109C17.1658 17.0262 16.9456 17.2417 16.7332 17.457C15.8759 18.2227 14.8865 18.8367 13.8328 19.3072C13.5124 19.3988 13.2158 19.5543 12.8914 19.6223C12.8836 17.7082 12.8914 15.794 12.8874 13.88C10.9684 13.88 9.04952 13.88 7.13082 13.88C7.1268 15.794 7.13467 17.7082 7.1268 19.6223C6.7984 19.5543 6.5018 19.3988 6.18546 19.3072C5.13575 18.8367 4.14634 18.2227 3.28487 17.457C2.9846 17.1419 2.64798 16.8587 2.38355 16.512C1.91078 15.9655 1.53029 15.3515 1.1699 14.7254C1.00946 14.3865 0.805318 14.0635 0.700976 13.6967C0.58073 13.3775 0.452794 13.0586 0.380611 12.7197C0.304409 12.3766 0.184338 12.0456 0.156199 11.6948C0.10831 11.3917 0.0522068 11.0927 0.0200479 10.7858C0.0200479 10.2712 0.0160281 9.75268 0.0240678 9.23849C0.112155 8.64425 0.180143 8.05019 0.352472 7.47185C0.44458 7.00538 0.645048 6.56669 0.793083 6.11611C1.26603 5.08738 1.87495 4.11038 2.6361 3.26499C3.01641 2.89813 3.38117 2.50733 3.8057 2.18837C4.52683 1.62611 5.31996 1.16348 6.1533 0.784563C6.55388 0.656976 6.94259 0.477656 7.35506 0.385898C7.6354 0.322105 7.91207 0.238387 8.19643 0.182459ZM6.9744 1.7537C6.5579 1.86922 6.18144 2.08857 5.79675 2.27593C5.47237 2.46346 5.14763 2.6468 4.85943 2.88607C4.33458 3.25293 3.88994 3.71556 3.44129 4.16613C3.17686 4.47322 2.93235 4.78816 2.69203 5.11517C2.38757 5.5619 2.14725 6.04428 1.91078 6.53068C1.83877 6.69829 1.79875 6.87779 1.72656 7.04522C1.4422 7.74311 1.33 8.49657 1.22985 9.23849C1.22181 9.75268 1.22985 10.2712 1.22583 10.7858C1.32196 11.5712 1.44622 12.3647 1.7547 13.0984C1.95902 13.7406 2.29948 14.3306 2.64798 14.9007C2.98058 15.3474 3.30899 15.802 3.7136 16.181C3.8819 16.3444 4.042 16.5198 4.21433 16.6794C4.67906 17.0582 5.13977 17.449 5.67651 17.72C5.67651 16.0093 5.67651 14.2946 5.67651 12.5841C6.14526 12.58 6.60999 12.5841 7.07874 12.5841C7.07874 11.7707 7.07874 10.9571 7.07874 10.1437C6.10121 10.1396 5.11985 10.1477 4.14232 10.1396C3.4773 9.45766 2.78815 8.79578 2.12313 8.11783C2.47967 7.79082 2.80825 7.432 3.16095 7.10098C3.66151 7.62338 4.19038 8.12185 4.69514 8.64425C5.9731 8.65212 7.25491 8.64425 8.53288 8.64827C8.53288 9.94424 8.53288 11.2402 8.53288 12.5362C9.51844 12.5362 10.5038 12.5362 11.4854 12.5362C11.4854 11.2402 11.4854 9.94424 11.4854 8.64827C12.7672 8.64425 14.0451 8.65212 15.3231 8.64425C15.7957 8.1617 16.2805 7.69522 16.7533 7.21266C16.7933 7.18068 16.8253 7.12108 16.8816 7.11706C17.2138 7.44808 17.5464 7.77894 17.8789 8.11381C17.867 8.13391 17.8429 8.16956 17.8348 8.18966C17.1778 8.83965 16.525 9.48563 15.8759 10.1437C14.8944 10.1515 13.917 10.1437 12.9395 10.1477C12.9395 10.9611 12.9395 11.7747 12.9395 12.5881C13.4081 12.5921 13.873 12.5881 14.3416 12.5881C14.3416 14.2988 14.3416 16.0135 14.3416 17.7241C14.614 17.5846 14.8703 17.425 15.1069 17.2375C15.5113 16.9465 15.8918 16.6275 16.2325 16.2647C16.6691 15.8618 17.0256 15.3833 17.3743 14.9088C17.7268 14.3386 18.0631 13.7484 18.2716 13.1063C18.576 12.3887 18.6921 11.6111 18.7964 10.8415C18.8003 10.3111 18.8003 9.78082 18.7964 9.24636C18.7202 8.73986 18.6601 8.22566 18.5199 7.73122C18.4277 7.33238 18.2513 6.96151 18.1274 6.57455C17.8949 6.07626 17.6426 5.58182 17.3341 5.12321C17.0055 4.68854 16.6851 4.24583 16.2846 3.87513C15.6755 3.23702 14.9706 2.69067 14.1934 2.26806C13.8289 2.09259 13.4762 1.88128 13.0837 1.77362C12.3226 1.45448 11.5013 1.31903 10.688 1.21923C10.2195 1.21923 9.75474 1.21539 9.28616 1.22325C8.50491 1.32305 7.7116 1.44662 6.9744 1.7537Z" fill="white"/>
<path fill-rule="evenodd" clip-rule="evenodd" d="M7.39134 3.45394C7.80486 3.44992 8.2224 3.45394 8.63593 3.45394C8.59992 3.58554 8.56374 3.72099 8.52774 3.8526C9.51523 3.8526 10.5071 3.8526 11.4947 3.8526C11.4587 3.72099 11.4226 3.58554 11.3864 3.45394C11.7999 3.45394 12.2174 3.44992 12.631 3.45394C12.9482 4.22749 13.2453 5.01696 13.5585 5.79052C13.0405 5.79436 12.5226 5.79436 12.0046 5.79052C11.9527 5.5911 11.9203 5.38364 11.8401 5.19226C10.6195 5.19628 9.39882 5.19628 8.17836 5.19226C8.10198 5.38364 8.06983 5.5911 8.01355 5.79052C7.49569 5.79052 6.97765 5.79436 6.45996 5.79052C6.77718 5.01294 7.0701 4.22749 7.39134 3.45394Z" fill="white"/>
<path fill-rule="evenodd" clip-rule="evenodd" d="M4.50676 5.72493C4.53892 5.70098 4.59118 5.61342 4.63522 5.67704C4.95227 5.99985 5.27718 6.31078 5.5902 6.63359C8.53903 6.63761 11.4877 6.63761 14.4325 6.63359C14.7535 6.30291 15.0823 5.9801 15.4114 5.65729H15.4394C15.7522 5.96402 16.0654 6.27093 16.3702 6.58989C15.9329 7.04414 15.4715 7.47863 15.0342 7.93305C11.6843 7.93707 8.33436 7.93707 4.98443 7.93305C4.54312 7.47863 4.08573 7.04414 3.64844 6.58989C3.92913 6.29505 4.22607 6.01995 4.50676 5.72493Z" fill="white"/>
<path fill-rule="evenodd" clip-rule="evenodd" d="M8.67285 17.5581C8.78698 17.5581 8.90495 17.5581 9.01891 17.5581C9.09371 17.6534 9.16048 17.7565 9.23126 17.8556C9.13688 17.8517 9.04268 17.8596 8.9483 17.8437C8.84605 17.7605 8.75954 17.6572 8.67285 17.5581Z" fill="white"/>
<path fill-rule="evenodd" clip-rule="evenodd" d="M11.5643 17.5729C11.684 17.5532 11.8076 17.5532 11.9233 17.5729C12.0269 17.6554 12.1146 17.7577 12.2024 17.8557C12.0907 17.8557 11.979 17.8557 11.8675 17.8519C11.8474 17.7183 11.6401 17.7222 11.6202 17.8519C11.5085 17.8557 11.3968 17.8557 11.2852 17.8557C11.3689 17.7577 11.4566 17.6554 11.5643 17.5729Z" fill="white"/>
<path fill-rule="evenodd" clip-rule="evenodd" d="M7.23779 17.915C7.38478 17.915 7.53579 17.915 7.6826 17.915C7.6826 18.1293 7.6826 18.3436 7.6826 18.5579C7.71843 18.5579 7.79393 18.5579 7.82959 18.5579C7.82959 18.3436 7.82959 18.1293 7.82959 17.915C7.97657 17.915 8.12775 17.915 8.27474 17.915C8.27474 18.4785 8.27474 19.0382 8.27474 19.6016C8.12373 19.6016 7.97657 19.6016 7.82959 19.6016C7.82959 19.3714 7.82959 19.1372 7.82959 18.9071C7.79393 18.9071 7.71843 18.9071 7.6826 18.9071C7.6826 19.1372 7.6826 19.3714 7.6826 19.6016C7.53579 19.6016 7.38478 19.6016 7.23779 19.6016C7.23779 19.0382 7.23779 18.4785 7.23779 17.915Z" fill="white"/>
<path fill-rule="evenodd" clip-rule="evenodd" d="M8.643 17.9168C8.87196 17.9128 9.10074 17.9168 9.32551 17.9168C9.40975 18.4761 9.49416 19.0394 9.59047 19.5989C9.42198 19.6027 9.25315 19.6027 9.08466 19.5989C9.08047 19.4996 9.08047 19.4003 9.08047 19.3012C9.01633 19.3012 8.94816 19.3012 8.88385 19.3012C8.88 19.4003 8.88 19.4996 8.88 19.5989C8.71117 19.5989 8.54268 19.6027 8.37402 19.5989C8.47452 19.0434 8.55876 18.4801 8.643 17.9168ZM8.9361 18.6626C8.9361 18.7776 8.9361 18.8926 8.9361 19.0116C8.96005 19.0116 9.01231 19.0116 9.03643 19.0116C9.03643 18.8966 9.03643 18.7816 9.03643 18.6626C9.00829 18.6626 8.96005 18.6626 8.9361 18.6626Z" fill="white"/>
<path fill-rule="evenodd" clip-rule="evenodd" d="M10.0929 17.915C10.2046 17.915 10.3161 17.915 10.4278 17.915C10.5036 18.1015 10.5435 18.2999 10.6312 18.4785C10.6433 18.292 10.6352 18.1015 10.6392 17.915C10.7867 17.915 10.9383 17.915 11.0858 17.915C11.0858 18.4785 11.0858 19.0382 11.0858 19.6016C10.9542 19.6016 10.8266 19.6016 10.695 19.6016C10.6312 19.4349 10.6193 19.2484 10.5435 19.0857C10.5276 19.2563 10.5354 19.4309 10.5354 19.6016C10.3879 19.6016 10.2364 19.6016 10.0889 19.6016C10.0929 19.0382 10.0929 18.4785 10.0929 17.915Z" fill="white"/>
<path fill-rule="evenodd" clip-rule="evenodd" d="M11.5077 17.9162C11.6882 17.8919 11.9046 17.8638 12.053 17.9928C12.1612 18.0814 12.2533 18.2104 12.2414 18.3554C12.2414 18.6257 12.2414 18.8957 12.2414 19.1657C12.2533 19.3754 12.0771 19.5649 11.8807 19.6131C11.7204 19.6173 11.5398 19.6495 11.4037 19.5528C11.2792 19.4642 11.1711 19.327 11.1871 19.1657C11.1871 18.8957 11.1871 18.6257 11.1871 18.3596C11.1751 18.1539 11.3315 17.9846 11.5077 17.9162ZM11.6402 18.2023C11.6402 18.573 11.6402 18.9399 11.6402 19.311C11.6762 19.311 11.7522 19.311 11.7884 19.311C11.7884 18.9399 11.7884 18.573 11.7884 18.2023C11.7522 18.2023 11.6762 18.2023 11.6402 18.2023Z" fill="white"/>
<path fill-rule="evenodd" clip-rule="evenodd" d="M12.3418 17.915C12.4933 17.915 12.6489 17.915 12.8004 17.915C12.8004 18.4785 12.8004 19.0382 12.8004 19.6016C12.6447 19.6016 12.4933 19.6016 12.3418 19.6016C12.3418 19.0382 12.3418 18.4785 12.3418 17.915Z" fill="white"/>
<path fill-rule="evenodd" clip-rule="evenodd" d="M11.5444 19.6611C11.6628 19.6611 11.7809 19.6611 11.9034 19.6611C11.9034 19.7725 11.9034 19.8836 11.9034 19.9985C11.7851 19.9985 11.667 19.9985 11.5444 19.9985C11.5444 19.8836 11.5444 19.7725 11.5444 19.6611Z" fill="white"/>
</g>
<defs>
<clipPath id="clip0_5622_21430">
<rect width="20" height="20" fill="white"/>
</clipPath>
</defs>
</svg>
